<svg xmlns="http://www.w3.org/2000/svg" width="307" height="355" fill="none"><path fill="#F9FAFF" fill-rule="evenodd" d="M205.5 411C92.24 411 0 318.76 0 205.5S92.24 0 205.5 0 411 92.24 411 205.5c0 65.86-31.19 124.61-79.56 162.25a14.19 14.19 0 0 0 4.08-9.17c.48-3.83.48-6.7.48-10.05v-4.78c-.12-6.07-.65-12.02-1.56-17.85A175.86 175.86 0 0 0 382 205.5C382 108.19 302.81 29 205.5 29S29 108.19 29 205.5c0 46.88 18.37 89.55 48.3 121.19a129.85 129.85 0 0 0-1.25 21.84c0 2.87 0 6.22.48 10.05.47 8.13 7.18 13.87 15.32 13.4 8.13-.49 13.88-7.18 13.4-15.31-.36-2.5-.45-4.47-.47-6.3A175.5 175.5 0 0 0 205.5 382c37.86 0 72.97-11.98 101.75-32.36-.04.83-.12 1.7-.2 2.6-.12 1.42-.25 2.92-.25 4.43-.48 7.65 5.26 14.82 13.4 15.3h.96c2.63 0 5.1-.68 7.21-1.88A204.38 204.38 0 0 1 205.5 411Zm101.75-61.36a178 178 0 0 0 27.19-23.74c-9.93-63.53-65.27-111.19-131.05-109.87-64.8 1.28-117.3 49.08-126.1 110.66a177.87 177.87 0 0 0 27.49 23.67v-6.13c.95-55.97 47.39-100.46 103.4-99.02 56.01.95 100.53 47.35 99.1 103.32l-.03 1.11Zm21.12 20.45c1.03-.77 2.05-1.55 3.07-2.34-.9.92-1.94 1.7-3.07 2.34ZM147 142.5a57.4 57.4 0 0 0 57.5 57.5 57.4 57.4 0 0 0 57.5-57.5A57.4 57.4 0 0 0 204.5 85a57.4 57.4 0 0 0-57.5 57.5Zm58.5-28.5a29.3 29.3 0 0 0-29.5 29.5 29.3 29.3 0 0 0 29.5 29.5 29.3 29.3 0 0 0 29.5-29.5 29.3 29.3 0 0 0-29.5-29.5Z" clip-rule="evenodd"/></svg>